<svg width="179" height="69" xmlns="http://www.w3.org/2000/svg" xmlns:xlink="http://www.w3.org/1999/xlink"><g transform=""><rect style="fill:#378B2E" id="0-0" width="7" height="7" x="7" y="7" rx="1"/><rect style="fill:#378B2E" id="1-0" width="7" height="7" x="7" y="15" rx="1"/><rect style="fill:#378B2E" id="2-0" width="7" height="7" x="7" y="23" rx="1"/><rect style="fill:#378B2E" id="3-0" width="7" height="7" x="7" y="31" rx="1"/><rect style="fill:#378B2E" id="4-0" width="7" height="7" x="7" y="39" rx="1"/><rect style="fill:#378B2E" id="1-1" width="7" height="7" x="15" y="15" rx="1"/><rect style="fill:#378B2E" id="4-1" width="7" height="7" x="15" y="39" rx="1"/><rect style="fill:#378B2E" id="2-3" width="7" height="7" x="28" y="23" rx="1"/><rect style="fill:#378B2E" id="3-3" width="7" height="7" x="28" y="31" rx="1"/><rect style="fill:#378B2E" id="4-3" width="7" height="7" x="28" y="39" rx="1"/><rect style="fill:#378B2E" id="4-4" width="7" height="7" x="36" y="39" rx="1"/><rect style="fill:#378B2E" id="2-5" width="7" height="7" x="44" y="23" rx="1"/><rect style="fill:#378B2E" id="3-5" width="7" height="7" x="44" y="31" rx="1"/><rect style="fill:#378B2E" id="4-5" width="7" height="7" x="44" y="39" rx="1"/><rect style="fill:#378B2E" id="2-7" width="7" height="7" x="57" y="23" rx="1"/><rect style="fill:#378B2E" id="3-7" width="7" height="7" x="57" y="31" rx="1"/><rect style="fill:#378B2E" id="4-7" width="7" height="7" x="57" y="39" rx="1"/><rect style="fill:#378B2E" id="2-8" width="7" height="7" x="65" y="23" rx="1"/><rect style="fill:#378B2E" id="0-10" width="7" height="7" x="78" y="7" rx="1"/><rect style="fill:#378B2E" id="1-10" width="7" height="7" x="78" y="15" rx="1"/><rect style="fill:#378B2E" id="2-10" width="7" height="7" x="78" y="23" rx="1"/><rect style="fill:#378B2E" id="3-10" width="7" height="7" x="78" y="31" rx="1"/><rect style="fill:#378B2E" id="4-10" width="7" height="7" x="78" y="39" rx="1"/><rect style="fill:#378B2E" id="2-11" width="7" height="7" x="86" y="23" rx="1"/><rect style="fill:#378B2E" id="4-11" width="7" height="7" x="86" y="39" rx="1"/><rect style="fill:#378B2E" id="2-12" width="7" height="7" x="94" y="23" rx="1"/><rect style="fill:#378B2E" id="3-12" width="7" height="7" x="94" y="31" rx="1"/><rect style="fill:#378B2E" id="4-12" width="7" height="7" x="94" y="39" rx="1"/><rect style="fill:#378B2E" id="2-14" width="7" height="7" x="107" y="23" rx="1"/><rect style="fill:#378B2E" id="3-14" width="7" height="7" x="107" y="31" rx="1"/><rect style="fill:#378B2E" id="4-14" width="7" height="7" x="107" y="39" rx="1"/><rect style="fill:#378B2E" id="2-16" width="7" height="7" x="120" y="23" rx="1"/><rect style="fill:#378B2E" id="3-16" width="7" height="7" x="120" y="31" rx="1"/><rect style="fill:#378B2E" id="4-16" width="7" height="7" x="120" y="39" rx="1"/><rect style="fill:#378B2E" id="2-17" width="7" height="7" x="128" y="23" rx="1"/><rect style="fill:#378B2E" id="2-18" width="7" height="7" x="136" y="23" rx="1"/><rect style="fill:#378B2E" id="3-18" width="7" height="7" x="136" y="31" rx="1"/><rect style="fill:#378B2E" id="4-18" width="7" height="7" x="136" y="39" rx="1"/><rect style="fill:#378B2E" id="3-20" width="7" height="7" x="149" y="31" rx="1"/><rect style="fill:#378B2E" id="2-21" width="7" height="7" x="157" y="23" rx="1"/><rect style="fill:#378B2E" id="3-21" width="7" height="7" x="157" y="31" rx="1"/><rect style="fill:#378B2E" id="4-21" width="7" height="7" x="157" y="39" rx="1"/><rect style="fill:#378B2E" id="2-22" width="7" height="7" x="165" y="23" rx="1"/><rect style="fill:#378B2E" id="4-22" width="7" height="7" x="165" y="39" rx="1"/></g></svg>